<svg xmlns="http://www.w3.org/2000/svg" version="1.1" xmlns:xlink="http://www.w3.org/1999/xlink" xmlns:svgjs="http://svgjs.dev/svgjs" width="1440" height="560" preserveAspectRatio="none" viewBox="0 0 1440 560"><g mask="url(&quot;#SvgjsMask1002&quot;)" fill="none"><path d="M-54.68 539.52L-54.68 539.52" stroke="#132e65" stroke-width="1.5"></path><path d="M-54.68 539.52L-87.34 701.74" stroke="#132e65" stroke-width="1.5"></path><path d="M-54.68 539.52L54.88 687.9" stroke="#132e65" stroke-width="1.5"></path><path d="M-54.68 539.52L78.1 404.21" stroke="#132e65" stroke-width="1.5"></path><path d="M-87.34 701.74L-87.34 701.74" stroke="#132e65" stroke-width="1.5"></path><path d="M-87.34 701.74L54.88 687.9" stroke="#132e65" stroke-width="1.5"></path><path d="M-87.34 701.74L236.81 703.7" stroke="#132e65" stroke-width="1.5"></path><path d="M78.1 404.21L78.1 404.21" stroke="#132e65" stroke-width="1.5"></path><path d="M78.1 404.21L203.99 387.49" stroke="#132e65" stroke-width="1.5"></path><path d="M78.1 404.21L247.44 518.77" stroke="#132e65" stroke-width="1.5"></path><path d="M78.1 404.21L54.88 687.9" stroke="#132e65" stroke-width="1.5"></path><path d="M78.1 404.21L407.43 360.22" stroke="#132e65" stroke-width="1.5"></path><path d="M54.88 687.9L54.88 687.9" stroke="#132e65" stroke-width="1.5"></path><path d="M54.88 687.9L236.81 703.7" stroke="#132e65" stroke-width="1.5"></path><path d="M54.88 687.9L247.44 518.77" stroke="#132e65" stroke-width="1.5"></path><path d="M203.99 387.49L203.99 387.49" stroke="#132e65" stroke-width="1.5"></path><path d="M203.99 387.49L247.44 518.77" stroke="#132e65" stroke-width="1.5"></path><path d="M203.99 387.49L407.43 360.22" stroke="#132e65" stroke-width="1.5"></path><path d="M247.44 518.77L247.44 518.77" stroke="#132e65" stroke-width="1.5"></path><path d="M247.44 518.77L401.54 547.75" stroke="#132e65" stroke-width="1.5"></path><path d="M236.81 703.7L236.81 703.7" stroke="#132e65" stroke-width="1.5"></path><path d="M236.81 703.7L341.1 674.19" stroke="#132e65" stroke-width="1.5"></path><path d="M236.81 703.7L247.44 518.77" stroke="#132e65" stroke-width="1.5"></path><path d="M236.81 703.7L401.54 547.75" stroke="#132e65" stroke-width="1.5"></path><path d="M236.81 703.7L203.99 387.49" stroke="#132e65" stroke-width="1.5"></path><path d="M236.81 703.7L551.37 640.16" stroke="#132e65" stroke-width="1.5"></path><path d="M407.43 360.22L407.43 360.22" stroke="#132e65" stroke-width="1.5"></path><path d="M407.43 360.22L549.91 390.18" stroke="#132e65" stroke-width="1.5"></path><path d="M407.43 360.22L530.77 490.49" stroke="#132e65" stroke-width="1.5"></path><path d="M407.43 360.22L401.54 547.75" stroke="#132e65" stroke-width="1.5"></path><path d="M407.43 360.22L247.44 518.77" stroke="#132e65" stroke-width="1.5"></path><path d="M407.43 360.22L711.6 380.29" stroke="#132e65" stroke-width="1.5"></path><path d="M401.54 547.75L401.54 547.75" stroke="#132e65" stroke-width="1.5"></path><path d="M401.54 547.75L341.1 674.19" stroke="#132e65" stroke-width="1.5"></path><path d="M401.54 547.75L530.77 490.49" stroke="#132e65" stroke-width="1.5"></path><path d="M341.1 674.19L341.1 674.19" stroke="#132e65" stroke-width="1.5"></path><path d="M341.1 674.19L247.44 518.77" stroke="#132e65" stroke-width="1.5"></path><path d="M341.1 674.19L551.37 640.16" stroke="#132e65" stroke-width="1.5"></path><path d="M341.1 674.19L530.77 490.49" stroke="#132e65" stroke-width="1.5"></path><path d="M341.1 674.19L54.88 687.9" stroke="#132e65" stroke-width="1.5"></path><path d="M549.91 390.18L549.91 390.18" stroke="#132e65" stroke-width="1.5"></path><path d="M549.91 390.18L530.77 490.49" stroke="#132e65" stroke-width="1.5"></path><path d="M530.77 490.49L530.77 490.49" stroke="#132e65" stroke-width="1.5"></path><path d="M530.77 490.49L551.37 640.16" stroke="#132e65" stroke-width="1.5"></path><path d="M530.77 490.49L677.68 546.69" stroke="#132e65" stroke-width="1.5"></path><path d="M551.37 640.16L551.37 640.16" stroke="#132e65" stroke-width="1.5"></path><path d="M551.37 640.16L648.57 678.09" stroke="#132e65" stroke-width="1.5"></path><path d="M711.6 380.29L711.6 380.29" stroke="#132e65" stroke-width="1.5"></path><path d="M711.6 380.29L830.04 397.34" stroke="#132e65" stroke-width="1.5"></path><path d="M711.6 380.29L549.91 390.18" stroke="#132e65" stroke-width="1.5"></path><path d="M677.68 546.69L677.68 546.69" stroke="#132e65" stroke-width="1.5"></path><path d="M677.68 546.69L648.57 678.09" stroke="#132e65" stroke-width="1.5"></path><path d="M677.68 546.69L551.37 640.16" stroke="#132e65" stroke-width="1.5"></path><path d="M648.57 678.09L648.57 678.09" stroke="#132e65" stroke-width="1.5"></path><path d="M648.57 678.09L810.94 691.62" stroke="#132e65" stroke-width="1.5"></path><path d="M648.57 678.09L530.77 490.49" stroke="#132e65" stroke-width="1.5"></path><path d="M648.57 678.09L847.27 496" stroke="#132e65" stroke-width="1.5"></path><path d="M648.57 678.09L401.54 547.75" stroke="#132e65" stroke-width="1.5"></path><path d="M838.12 196.97L838.12 196.97" stroke="#132e65" stroke-width="1.5"></path><path d="M838.12 196.97L830.04 397.34" stroke="#132e65" stroke-width="1.5"></path><path d="M838.12 196.97L1011.62 83.66" stroke="#132e65" stroke-width="1.5"></path><path d="M838.12 196.97L978.16 368.88" stroke="#132e65" stroke-width="1.5"></path><path d="M830.04 397.34L830.04 397.34" stroke="#132e65" stroke-width="1.5"></path><path d="M830.04 397.34L847.27 496" stroke="#132e65" stroke-width="1.5"></path><path d="M830.04 397.34L978.16 368.88" stroke="#132e65" stroke-width="1.5"></path><path d="M847.27 496L847.27 496" stroke="#132e65" stroke-width="1.5"></path><path d="M847.27 496L946.94 500.18" stroke="#132e65" stroke-width="1.5"></path><path d="M847.27 496L677.68 546.69" stroke="#132e65" stroke-width="1.5"></path><path d="M847.27 496L711.6 380.29" stroke="#132e65" stroke-width="1.5"></path><path d="M847.27 496L978.16 368.88" stroke="#132e65" stroke-width="1.5"></path><path d="M810.94 691.62L810.94 691.62" stroke="#132e65" stroke-width="1.5"></path><path d="M810.94 691.62L1007.47 689.21" stroke="#132e65" stroke-width="1.5"></path><path d="M963.67 -68.76L963.67 -68.76" stroke="#132e65" stroke-width="1.5"></path><path d="M963.67 -68.76L1117.05 -52.27" stroke="#132e65" stroke-width="1.5"></path><path d="M963.67 -68.76L1011.62 83.66" stroke="#132e65" stroke-width="1.5"></path><path d="M963.67 -68.76L1162.35 90.3" stroke="#132e65" stroke-width="1.5"></path><path d="M963.67 -68.76L838.12 196.97" stroke="#132e65" stroke-width="1.5"></path><path d="M963.67 -68.76L1244.59 100.3" stroke="#132e65" stroke-width="1.5"></path><path d="M1011.62 83.66L1011.62 83.66" stroke="#132e65" stroke-width="1.5"></path><path d="M1011.62 83.66L1162.35 90.3" stroke="#132e65" stroke-width="1.5"></path><path d="M1011.62 83.66L1117.05 -52.27" stroke="#132e65" stroke-width="1.5"></path><path d="M978.16 368.88L978.16 368.88" stroke="#132e65" stroke-width="1.5"></path><path d="M978.16 368.88L1096.78 349.26" stroke="#132e65" stroke-width="1.5"></path><path d="M978.16 368.88L946.94 500.18" stroke="#132e65" stroke-width="1.5"></path><path d="M946.94 500.18L946.94 500.18" stroke="#132e65" stroke-width="1.5"></path><path d="M946.94 500.18L830.04 397.34" stroke="#132e65" stroke-width="1.5"></path><path d="M946.94 500.18L1116.4 517.09" stroke="#132e65" stroke-width="1.5"></path><path d="M946.94 500.18L1007.47 689.21" stroke="#132e65" stroke-width="1.5"></path><path d="M946.94 500.18L1096.78 349.26" stroke="#132e65" stroke-width="1.5"></path><path d="M1007.47 689.21L1007.47 689.21" stroke="#132e65" stroke-width="1.5"></path><path d="M1007.47 689.21L1128.06 656.38" stroke="#132e65" stroke-width="1.5"></path><path d="M1117.05 -52.27L1117.05 -52.27" stroke="#132e65" stroke-width="1.5"></path><path d="M1117.05 -52.27L1162.35 90.3" stroke="#132e65" stroke-width="1.5"></path><path d="M1117.05 -52.27L1299.24 -69.55" stroke="#132e65" stroke-width="1.5"></path><path d="M1162.35 90.3L1162.35 90.3" stroke="#132e65" stroke-width="1.5"></path><path d="M1162.35 90.3L1244.59 100.3" stroke="#132e65" stroke-width="1.5"></path><path d="M1162.35 90.3L1268.41 189.56" stroke="#132e65" stroke-width="1.5"></path><path d="M1145.81 257.32L1145.81 257.32" stroke="#132e65" stroke-width="1.5"></path><path d="M1145.81 257.32L1096.78 349.26" stroke="#132e65" stroke-width="1.5"></path><path d="M1145.81 257.32L1268.41 189.56" stroke="#132e65" stroke-width="1.5"></path><path d="M1096.78 349.26L1096.78 349.26" stroke="#132e65" stroke-width="1.5"></path><path d="M1096.78 349.26L1116.4 517.09" stroke="#132e65" stroke-width="1.5"></path><path d="M1116.4 517.09L1116.4 517.09" stroke="#132e65" stroke-width="1.5"></path><path d="M1116.4 517.09L1128.06 656.38" stroke="#132e65" stroke-width="1.5"></path><path d="M1116.4 517.09L1263.31 560.76" stroke="#132e65" stroke-width="1.5"></path><path d="M1128.06 656.38L1128.06 656.38" stroke="#132e65" stroke-width="1.5"></path><path d="M1299.24 -69.55L1299.24 -69.55" stroke="#132e65" stroke-width="1.5"></path><path d="M1299.24 -69.55L1244.59 100.3" stroke="#132e65" stroke-width="1.5"></path><path d="M1299.24 -69.55L1458.77 62.24" stroke="#132e65" stroke-width="1.5"></path><path d="M1299.24 -69.55L1162.35 90.3" stroke="#132e65" stroke-width="1.5"></path><path d="M1299.24 -69.55L1540.89 -70.83" stroke="#132e65" stroke-width="1.5"></path><path d="M1244.59 100.3L1244.59 100.3" stroke="#132e65" stroke-width="1.5"></path><path d="M1244.59 100.3L1268.41 189.56" stroke="#132e65" stroke-width="1.5"></path><path d="M1244.59 100.3L1390.94 209.43" stroke="#132e65" stroke-width="1.5"></path><path d="M1244.59 100.3L1145.81 257.32" stroke="#132e65" stroke-width="1.5"></path><path d="M1268.41 189.56L1268.41 189.56" stroke="#132e65" stroke-width="1.5"></path><path d="M1268.41 189.56L1390.94 209.43" stroke="#132e65" stroke-width="1.5"></path><path d="M1265.75 369.74L1265.75 369.74" stroke="#132e65" stroke-width="1.5"></path><path d="M1265.75 369.74L1145.81 257.32" stroke="#132e65" stroke-width="1.5"></path><path d="M1265.75 369.74L1096.78 349.26" stroke="#132e65" stroke-width="1.5"></path><path d="M1265.75 369.74L1268.41 189.56" stroke="#132e65" stroke-width="1.5"></path><path d="M1265.75 369.74L1448.2 403.76" stroke="#132e65" stroke-width="1.5"></path><path d="M1263.31 560.76L1263.31 560.76" stroke="#132e65" stroke-width="1.5"></path><path d="M1263.31 560.76L1276.8 659.69" stroke="#132e65" stroke-width="1.5"></path><path d="M1263.31 560.76L1128.06 656.38" stroke="#132e65" stroke-width="1.5"></path><path d="M1263.31 560.76L1437.61 557.96" stroke="#132e65" stroke-width="1.5"></path><path d="M1263.31 560.76L1265.75 369.74" stroke="#132e65" stroke-width="1.5"></path><path d="M1263.31 560.76L1434.19 699.83" stroke="#132e65" stroke-width="1.5"></path><path d="M1276.8 659.69L1276.8 659.69" stroke="#132e65" stroke-width="1.5"></path><path d="M1276.8 659.69L1128.06 656.38" stroke="#132e65" stroke-width="1.5"></path><path d="M1276.8 659.69L1434.19 699.83" stroke="#132e65" stroke-width="1.5"></path><path d="M1276.8 659.69L1437.61 557.96" stroke="#132e65" stroke-width="1.5"></path><path d="M1458.77 62.24L1458.77 62.24" stroke="#132e65" stroke-width="1.5"></path><path d="M1458.77 62.24L1548.05 71" stroke="#132e65" stroke-width="1.5"></path><path d="M1458.77 62.24L1540.89 -70.83" stroke="#132e65" stroke-width="1.5"></path><path d="M1458.77 62.24L1390.94 209.43" stroke="#132e65" stroke-width="1.5"></path><path d="M1458.77 62.24L1600.76 225.28" stroke="#132e65" stroke-width="1.5"></path><path d="M1458.77 62.24L1244.59 100.3" stroke="#132e65" stroke-width="1.5"></path><path d="M1390.94 209.43L1390.94 209.43" stroke="#132e65" stroke-width="1.5"></path><path d="M1448.2 403.76L1448.2 403.76" stroke="#132e65" stroke-width="1.5"></path><path d="M1448.2 403.76L1584.67 359.84" stroke="#132e65" stroke-width="1.5"></path><path d="M1448.2 403.76L1437.61 557.96" stroke="#132e65" stroke-width="1.5"></path><path d="M1437.61 557.96L1437.61 557.96" stroke="#132e65" stroke-width="1.5"></path><path d="M1437.61 557.96L1434.19 699.83" stroke="#132e65" stroke-width="1.5"></path><path d="M1437.61 557.96L1594.97 537.35" stroke="#132e65" stroke-width="1.5"></path><path d="M1434.19 699.83L1434.19 699.83" stroke="#132e65" stroke-width="1.5"></path><path d="M1434.19 699.83L1610.89 639.24" stroke="#132e65" stroke-width="1.5"></path><path d="M1540.89 -70.83L1540.89 -70.83" stroke="#132e65" stroke-width="1.5"></path><path d="M1540.89 -70.83L1548.05 71" stroke="#132e65" stroke-width="1.5"></path><path d="M1540.89 -70.83L1600.76 225.28" stroke="#132e65" stroke-width="1.5"></path><path d="M1540.89 -70.83L1390.94 209.43" stroke="#132e65" stroke-width="1.5"></path><path d="M1540.89 -70.83L1244.59 100.3" stroke="#132e65" stroke-width="1.5"></path><path d="M1548.05 71L1548.05 71" stroke="#132e65" stroke-width="1.5"></path><path d="M1600.76 225.28L1600.76 225.28" stroke="#132e65" stroke-width="1.5"></path><path d="M1600.76 225.28L1584.67 359.84" stroke="#132e65" stroke-width="1.5"></path><path d="M1600.76 225.28L1548.05 71" stroke="#132e65" stroke-width="1.5"></path><path d="M1600.76 225.28L1390.94 209.43" stroke="#132e65" stroke-width="1.5"></path><path d="M1600.76 225.28L1448.2 403.76" stroke="#132e65" stroke-width="1.5"></path><path d="M1584.67 359.84L1584.67 359.84" stroke="#132e65" stroke-width="1.5"></path><path d="M1594.97 537.35L1594.97 537.35" stroke="#132e65" stroke-width="1.5"></path><path d="M1594.97 537.35L1610.89 639.24" stroke="#132e65" stroke-width="1.5"></path><path d="M1594.97 537.35L1584.67 359.84" stroke="#132e65" stroke-width="1.5"></path><path d="M1594.97 537.35L1448.2 403.76" stroke="#132e65" stroke-width="1.5"></path><path d="M1594.97 537.35L1434.19 699.83" stroke="#132e65" stroke-width="1.5"></path><path d="M1594.97 537.35L1600.76 225.28" stroke="#132e65" stroke-width="1.5"></path><path d="M1610.89 639.24L1610.89 639.24" stroke="#132e65" stroke-width="1.5"></path><path d="M1610.89 639.24L1437.61 557.96" stroke="#132e65" stroke-width="1.5"></path><path d="M1610.89 639.24L1584.67 359.84" stroke="#132e65" stroke-width="1.5"></path><path d="M1610.89 639.24L1448.2 403.76" stroke="#132e65" stroke-width="1.5"></path><path d="M1610.89 639.24L1276.8 659.69" stroke="#132e65" stroke-width="1.5"></path><circle r="5" cx="-54.68" cy="539.52" fill="#132e65"></circle><circle r="5" cx="-87.34" cy="701.74" fill="#132e65"></circle><circle r="5" cx="78.1" cy="404.21" fill="#132e65"></circle><circle r="5" cx="54.88" cy="687.9" fill="#132e65"></circle><circle r="5" cx="203.99" cy="387.49" fill="#132e65"></circle><circle r="5" cx="247.44" cy="518.77" fill="#132e65"></circle><circle r="5" cx="236.81" cy="703.7" fill="#132e65"></circle><circle r="5" cx="407.43" cy="360.22" fill="#132e65"></circle><circle r="5" cx="401.54" cy="547.75" fill="#132e65"></circle><circle r="5" cx="341.1" cy="674.19" fill="#132e65"></circle><circle r="5" cx="549.91" cy="390.18" fill="#132e65"></circle><circle r="5" cx="530.77" cy="490.49" fill="#132e65"></circle><circle r="5" cx="551.37" cy="640.16" fill="#132e65"></circle><circle r="5" cx="711.6" cy="380.29" fill="#132e65"></circle><circle r="5" cx="677.68" cy="546.69" fill="#132e65"></circle><circle r="5" cx="648.57" cy="678.09" fill="#132e65"></circle><circle r="5" cx="838.12" cy="196.97" fill="#132e65"></circle><circle r="5" cx="830.04" cy="397.34" fill="#132e65"></circle><circle r="5" cx="847.27" cy="496" fill="#132e65"></circle><circle r="5" cx="810.94" cy="691.62" fill="#132e65"></circle><circle r="5" cx="963.67" cy="-68.76" fill="#132e65"></circle><circle r="5" cx="1011.62" cy="83.66" fill="#132e65"></circle><circle r="5" cx="978.16" cy="368.88" fill="#132e65"></circle><circle r="5" cx="946.94" cy="500.18" fill="#132e65"></circle><circle r="5" cx="1007.47" cy="689.21" fill="#132e65"></circle><circle r="5" cx="1117.05" cy="-52.27" fill="#132e65"></circle><circle r="5" cx="1162.35" cy="90.3" fill="#132e65"></circle><circle r="5" cx="1145.81" cy="257.32" fill="#132e65"></circle><circle r="5" cx="1096.78" cy="349.26" fill="#132e65"></circle><circle r="5" cx="1116.4" cy="517.09" fill="#132e65"></circle><circle r="5" cx="1128.06" cy="656.38" fill="#132e65"></circle><circle r="5" cx="1299.24" cy="-69.55" fill="#132e65"></circle><circle r="5" cx="1244.59" cy="100.3" fill="#132e65"></circle><circle r="5" cx="1268.41" cy="189.56" fill="#132e65"></circle><circle r="5" cx="1265.75" cy="369.74" fill="#132e65"></circle><circle r="5" cx="1263.31" cy="560.76" fill="#132e65"></circle><circle r="5" cx="1276.8" cy="659.69" fill="#132e65"></circle><circle r="5" cx="1458.77" cy="62.24" fill="#132e65"></circle><circle r="5" cx="1390.94" cy="209.43" fill="#132e65"></circle><circle r="5" cx="1448.2" cy="403.76" fill="#132e65"></circle><circle r="5" cx="1437.61" cy="557.96" fill="#132e65"></circle><circle r="5" cx="1434.19" cy="699.83" fill="#132e65"></circle><circle r="5" cx="1540.89" cy="-70.83" fill="#132e65"></circle><circle r="5" cx="1548.05" cy="71" fill="#132e65"></circle><circle r="5" cx="1600.76" cy="225.28" fill="#132e65"></circle><circle r="5" cx="1584.67" cy="359.84" fill="#132e65"></circle><circle r="5" cx="1594.97" cy="537.35" fill="#132e65"></circle><circle r="5" cx="1610.89" cy="639.24" fill="#132e65"></circle><path d="M355.77 676.88L355.77 676.88" stroke="hsl(228.5, 77.2%, 51.5%)" stroke-width="1.5"></path><path d="M355.77 676.88L215.91 645.42" stroke="hsl(228.5, 77.2%, 51.5%)" stroke-width="1.5"></path><path d="M355.77 676.88L373.71 532.38" stroke="hsl(228.5, 77.2%, 51.5%)" stroke-width="1.5"></path><path d="M355.77 676.88L546.25 674.99" stroke="hsl(228.5, 77.2%, 51.5%)" stroke-width="1.5"></path><path d="M825.49 354.16L825.49 354.16" stroke="hsl(228.5, 77.2%, 51.5%)" stroke-width="1.5"></path><path d="M825.49 354.16L811.43 501.28" stroke="hsl(228.5, 77.2%, 51.5%)" stroke-width="1.5"></path><path d="M811.43 501.28L811.43 501.28" stroke="hsl(228.5, 77.2%, 51.5%)" stroke-width="1.5"></path><path d="M811.43 501.28L685.21 521.33" stroke="hsl(228.5, 77.2%, 51.5%)" stroke-width="1.5"></path><path d="M811.43 501.28L851.21 660.34" stroke="hsl(228.5, 77.2%, 51.5%)" stroke-width="1.5"></path><path d="M851.21 660.34L851.21 660.34" stroke="hsl(228.5, 77.2%, 51.5%)" stroke-width="1.5"></path><path d="M851.21 660.34L975.57 664.26" stroke="hsl(228.5, 77.2%, 51.5%)" stroke-width="1.5"></path><path d="M851.21 660.34L696.54 647.93" stroke="hsl(228.5, 77.2%, 51.5%)" stroke-width="1.5"></path><path d="M851.21 660.34L685.21 521.33" stroke="hsl(228.5, 77.2%, 51.5%)" stroke-width="1.5"></path><path d="M851.21 660.34L986.01 490.87" stroke="hsl(228.5, 77.2%, 51.5%)" stroke-width="1.5"></path><path d="M851.21 660.34L1140.45 674.09" stroke="hsl(228.5, 77.2%, 51.5%)" stroke-width="1.5"></path><path d="M1116.45 367.61L1116.45 367.61" stroke="hsl(228.5, 77.2%, 51.5%)" stroke-width="1.5"></path><path d="M1116.45 367.61L978.48 395.27" stroke="hsl(228.5, 77.2%, 51.5%)" stroke-width="1.5"></path><path d="M1116.45 367.61L1108.76 218.95" stroke="hsl(228.5, 77.2%, 51.5%)" stroke-width="1.5"></path><path d="M1116.45 367.61L1273.53 382.64" stroke="hsl(228.5, 77.2%, 51.5%)" stroke-width="1.5"></path><path d="M1124.98 525.46L1124.98 525.46" stroke="hsl(228.5, 77.2%, 51.5%)" stroke-width="1.5"></path><path d="M1124.98 525.46L986.01 490.87" stroke="hsl(228.5, 77.2%, 51.5%)" stroke-width="1.5"></path><path d="M1124.98 525.46L1271.46 498.45" stroke="hsl(228.5, 77.2%, 51.5%)" stroke-width="1.5"></path><path d="M1124.98 525.46L1140.45 674.09" stroke="hsl(228.5, 77.2%, 51.5%)" stroke-width="1.5"></path><path d="M1124.98 525.46L1116.45 367.61" stroke="hsl(228.5, 77.2%, 51.5%)" stroke-width="1.5"></path><path d="M1124.98 525.46L978.48 395.27" stroke="hsl(228.5, 77.2%, 51.5%)" stroke-width="1.5"></path><path d="M1124.98 525.46L975.57 664.26" stroke="hsl(228.5, 77.2%, 51.5%)" stroke-width="1.5"></path><path d="M1312.35 652.36L1312.35 652.36" stroke="hsl(228.5, 77.2%, 51.5%)" stroke-width="1.5"></path><path d="M1312.35 652.36L1414.34 644.05" stroke="hsl(228.5, 77.2%, 51.5%)" stroke-width="1.5"></path><path d="M1312.35 652.36L1271.46 498.45" stroke="hsl(228.5, 77.2%, 51.5%)" stroke-width="1.5"></path><path d="M1312.35 652.36L1444.73 561.15" stroke="hsl(228.5, 77.2%, 51.5%)" stroke-width="1.5"></path><path d="M1312.35 652.36L1140.45 674.09" stroke="hsl(228.5, 77.2%, 51.5%)" stroke-width="1.5"></path><path d="M1453.45 -107.22L1453.45 -107.22" stroke="hsl(228.5, 77.2%, 51.5%)" stroke-width="1.5"></path><path d="M1453.45 -107.22L1605.67 -98.68" stroke="hsl(228.5, 77.2%, 51.5%)" stroke-width="1.5"></path><path d="M1453.45 -107.22L1281.68 -50" stroke="hsl(228.5, 77.2%, 51.5%)" stroke-width="1.5"></path><path d="M1453.45 -107.22L1388.38 66.54" stroke="hsl(228.5, 77.2%, 51.5%)" stroke-width="1.5"></path><path d="M1453.45 -107.22L1310.77 44.09" stroke="hsl(228.5, 77.2%, 51.5%)" stroke-width="1.5"></path><path d="M1459.91 398.64L1459.91 398.64" stroke="hsl(228.5, 77.2%, 51.5%)" stroke-width="1.5"></path><path d="M1459.91 398.64L1549.37 389.62" stroke="hsl(228.5, 77.2%, 51.5%)" stroke-width="1.5"></path><path d="M1459.91 398.64L1444.73 561.15" stroke="hsl(228.5, 77.2%, 51.5%)" stroke-width="1.5"></path><path d="M1602.64 558.21L1602.64 558.21" stroke="hsl(228.5, 77.2%, 51.5%)" stroke-width="1.5"></path><path d="M1602.64 558.21L1609.76 660.6" stroke="hsl(228.5, 77.2%, 51.5%)" stroke-width="1.5"></path><path d="M1602.64 558.21L1444.73 561.15" stroke="hsl(228.5, 77.2%, 51.5%)" stroke-width="1.5"></path><path d="M1602.64 558.21L1549.37 389.62" stroke="hsl(228.5, 77.2%, 51.5%)" stroke-width="1.5"></path><path d="M1602.64 558.21L1414.34 644.05" stroke="hsl(228.5, 77.2%, 51.5%)" stroke-width="1.5"></path><path d="M1602.64 558.21L1459.91 398.64" stroke="hsl(228.5, 77.2%, 51.5%)" stroke-width="1.5"></path><path d="M1602.64 558.21L1312.35 652.36" stroke="hsl(228.5, 77.2%, 51.5%)" stroke-width="1.5"></path><path d="M-101.82 522.68L-101.82 522.68" stroke="hsl(228.5, 77.2%, 51.5%)" stroke-width="1.5"></path><path d="M-101.82 522.68L56.73 533.37" stroke="hsl(228.5, 77.2%, 51.5%)" stroke-width="1.5"></path><path d="M-101.82 522.68L71.36 689.95" stroke="hsl(228.5, 77.2%, 51.5%)" stroke-width="1.5"></path><path d="M56.73 533.37L56.73 533.37" stroke="hsl(228.5, 77.2%, 51.5%)" stroke-width="1.5"></path><path d="M56.73 533.37L71.36 689.95" stroke="hsl(228.5, 77.2%, 51.5%)" stroke-width="1.5"></path><path d="M56.73 533.37L222.68 533.83" stroke="hsl(228.5, 77.2%, 51.5%)" stroke-width="1.5"></path><path d="M56.73 533.37L215.91 645.42" stroke="hsl(228.5, 77.2%, 51.5%)" stroke-width="1.5"></path><path d="M56.73 533.37L373.71 532.38" stroke="hsl(228.5, 77.2%, 51.5%)" stroke-width="1.5"></path><path d="M56.73 533.37L355.77 676.88" stroke="hsl(228.5, 77.2%, 51.5%)" stroke-width="1.5"></path><path d="M71.36 689.95L71.36 689.95" stroke="hsl(228.5, 77.2%, 51.5%)" stroke-width="1.5"></path><path d="M71.36 689.95L215.91 645.42" stroke="hsl(228.5, 77.2%, 51.5%)" stroke-width="1.5"></path><path d="M71.36 689.95L222.68 533.83" stroke="hsl(228.5, 77.2%, 51.5%)" stroke-width="1.5"></path><path d="M71.36 689.95L355.77 676.88" stroke="hsl(228.5, 77.2%, 51.5%)" stroke-width="1.5"></path><path d="M71.36 689.95L373.71 532.38" stroke="hsl(228.5, 77.2%, 51.5%)" stroke-width="1.5"></path><path d="M222.68 533.83L222.68 533.83" stroke="hsl(228.5, 77.2%, 51.5%)" stroke-width="1.5"></path><path d="M222.68 533.83L215.91 645.42" stroke="hsl(228.5, 77.2%, 51.5%)" stroke-width="1.5"></path><path d="M222.68 533.83L373.71 532.38" stroke="hsl(228.5, 77.2%, 51.5%)" stroke-width="1.5"></path><path d="M222.68 533.83L355.77 676.88" stroke="hsl(228.5, 77.2%, 51.5%)" stroke-width="1.5"></path><path d="M222.68 533.83L545.79 523.48" stroke="hsl(228.5, 77.2%, 51.5%)" stroke-width="1.5"></path><path d="M215.91 645.42L215.91 645.42" stroke="hsl(228.5, 77.2%, 51.5%)" stroke-width="1.5"></path><path d="M373.71 532.38L373.71 532.38" stroke="hsl(228.5, 77.2%, 51.5%)" stroke-width="1.5"></path><path d="M373.71 532.38L545.79 523.48" stroke="hsl(228.5, 77.2%, 51.5%)" stroke-width="1.5"></path><path d="M373.71 532.38L215.91 645.42" stroke="hsl(228.5, 77.2%, 51.5%)" stroke-width="1.5"></path><path d="M373.71 532.38L546.25 674.99" stroke="hsl(228.5, 77.2%, 51.5%)" stroke-width="1.5"></path><path d="M373.71 532.38L685.21 521.33" stroke="hsl(228.5, 77.2%, 51.5%)" stroke-width="1.5"></path><path d="M545.79 523.48L545.79 523.48" stroke="hsl(228.5, 77.2%, 51.5%)" stroke-width="1.5"></path><path d="M545.79 523.48L685.21 521.33" stroke="hsl(228.5, 77.2%, 51.5%)" stroke-width="1.5"></path><path d="M545.79 523.48L546.25 674.99" stroke="hsl(228.5, 77.2%, 51.5%)" stroke-width="1.5"></path><path d="M546.25 674.99L546.25 674.99" stroke="hsl(228.5, 77.2%, 51.5%)" stroke-width="1.5"></path><path d="M546.25 674.99L696.54 647.93" stroke="hsl(228.5, 77.2%, 51.5%)" stroke-width="1.5"></path><path d="M685.21 521.33L685.21 521.33" stroke="hsl(228.5, 77.2%, 51.5%)" stroke-width="1.5"></path><path d="M685.21 521.33L696.54 647.93" stroke="hsl(228.5, 77.2%, 51.5%)" stroke-width="1.5"></path><path d="M685.21 521.33L546.25 674.99" stroke="hsl(228.5, 77.2%, 51.5%)" stroke-width="1.5"></path><path d="M696.54 647.93L696.54 647.93" stroke="hsl(228.5, 77.2%, 51.5%)" stroke-width="1.5"></path><path d="M696.54 647.93L811.43 501.28" stroke="hsl(228.5, 77.2%, 51.5%)" stroke-width="1.5"></path><path d="M696.54 647.93L545.79 523.48" stroke="hsl(228.5, 77.2%, 51.5%)" stroke-width="1.5"></path><path d="M978.48 395.27L978.48 395.27" stroke="hsl(228.5, 77.2%, 51.5%)" stroke-width="1.5"></path><path d="M978.48 395.27L986.01 490.87" stroke="hsl(228.5, 77.2%, 51.5%)" stroke-width="1.5"></path><path d="M986.01 490.87L986.01 490.87" stroke="hsl(228.5, 77.2%, 51.5%)" stroke-width="1.5"></path><path d="M986.01 490.87L975.57 664.26" stroke="hsl(228.5, 77.2%, 51.5%)" stroke-width="1.5"></path><path d="M975.57 664.26L975.57 664.26" stroke="hsl(228.5, 77.2%, 51.5%)" stroke-width="1.5"></path><path d="M975.57 664.26L1140.45 674.09" stroke="hsl(228.5, 77.2%, 51.5%)" stroke-width="1.5"></path><path d="M1108.76 218.95L1108.76 218.95" stroke="hsl(228.5, 77.2%, 51.5%)" stroke-width="1.5"></path><path d="M1108.76 218.95L1287.15 231.64" stroke="hsl(228.5, 77.2%, 51.5%)" stroke-width="1.5"></path><path d="M1140.45 674.09L1140.45 674.09" stroke="hsl(228.5, 77.2%, 51.5%)" stroke-width="1.5"></path><path d="M1140.45 674.09L1271.46 498.45" stroke="hsl(228.5, 77.2%, 51.5%)" stroke-width="1.5"></path><path d="M1140.45 674.09L986.01 490.87" stroke="hsl(228.5, 77.2%, 51.5%)" stroke-width="1.5"></path><path d="M1281.68 -50L1281.68 -50" stroke="hsl(228.5, 77.2%, 51.5%)" stroke-width="1.5"></path><path d="M1281.68 -50L1310.77 44.09" stroke="hsl(228.5, 77.2%, 51.5%)" stroke-width="1.5"></path><path d="M1281.68 -50L1388.38 66.54" stroke="hsl(228.5, 77.2%, 51.5%)" stroke-width="1.5"></path><path d="M1310.77 44.09L1310.77 44.09" stroke="hsl(228.5, 77.2%, 51.5%)" stroke-width="1.5"></path><path d="M1310.77 44.09L1388.38 66.54" stroke="hsl(228.5, 77.2%, 51.5%)" stroke-width="1.5"></path><path d="M1310.77 44.09L1287.15 231.64" stroke="hsl(228.5, 77.2%, 51.5%)" stroke-width="1.5"></path><path d="M1310.77 44.09L1392.1 246.68" stroke="hsl(228.5, 77.2%, 51.5%)" stroke-width="1.5"></path><path d="M1310.77 44.09L1108.76 218.95" stroke="hsl(228.5, 77.2%, 51.5%)" stroke-width="1.5"></path><path d="M1287.15 231.64L1287.15 231.64" stroke="hsl(228.5, 77.2%, 51.5%)" stroke-width="1.5"></path><path d="M1287.15 231.64L1392.1 246.68" stroke="hsl(228.5, 77.2%, 51.5%)" stroke-width="1.5"></path><path d="M1287.15 231.64L1273.53 382.64" stroke="hsl(228.5, 77.2%, 51.5%)" stroke-width="1.5"></path><path d="M1273.53 382.64L1273.53 382.64" stroke="hsl(228.5, 77.2%, 51.5%)" stroke-width="1.5"></path><path d="M1273.53 382.64L1271.46 498.45" stroke="hsl(228.5, 77.2%, 51.5%)" stroke-width="1.5"></path><path d="M1273.53 382.64L1392.1 246.68" stroke="hsl(228.5, 77.2%, 51.5%)" stroke-width="1.5"></path><path d="M1273.53 382.64L1459.91 398.64" stroke="hsl(228.5, 77.2%, 51.5%)" stroke-width="1.5"></path><path d="M1271.46 498.45L1271.46 498.45" stroke="hsl(228.5, 77.2%, 51.5%)" stroke-width="1.5"></path><path d="M1388.38 66.54L1388.38 66.54" stroke="hsl(228.5, 77.2%, 51.5%)" stroke-width="1.5"></path><path d="M1392.1 246.68L1392.1 246.68" stroke="hsl(228.5, 77.2%, 51.5%)" stroke-width="1.5"></path><path d="M1392.1 246.68L1459.91 398.64" stroke="hsl(228.5, 77.2%, 51.5%)" stroke-width="1.5"></path><path d="M1444.73 561.15L1444.73 561.15" stroke="hsl(228.5, 77.2%, 51.5%)" stroke-width="1.5"></path><path d="M1444.73 561.15L1414.34 644.05" stroke="hsl(228.5, 77.2%, 51.5%)" stroke-width="1.5"></path><path d="M1414.34 644.05L1414.34 644.05" stroke="hsl(228.5, 77.2%, 51.5%)" stroke-width="1.5"></path><path d="M1414.34 644.05L1609.76 660.6" stroke="hsl(228.5, 77.2%, 51.5%)" stroke-width="1.5"></path><path d="M1414.34 644.05L1271.46 498.45" stroke="hsl(228.5, 77.2%, 51.5%)" stroke-width="1.5"></path><path d="M1605.67 -98.68L1605.67 -98.68" stroke="hsl(228.5, 77.2%, 51.5%)" stroke-width="1.5"></path><path d="M1605.67 -98.68L1388.38 66.54" stroke="hsl(228.5, 77.2%, 51.5%)" stroke-width="1.5"></path><path d="M1549.37 389.62L1549.37 389.62" stroke="hsl(228.5, 77.2%, 51.5%)" stroke-width="1.5"></path><path d="M1609.76 660.6L1609.76 660.6" stroke="hsl(228.5, 77.2%, 51.5%)" stroke-width="1.5"></path><path d="M1609.76 660.6L1444.73 561.15" stroke="hsl(228.5, 77.2%, 51.5%)" stroke-width="1.5"></path><circle r="25" cx="355.77" cy="676.88" fill="url(&quot;#SvgjsRadialGradient1003&quot;)"></circle><circle r="25" cx="825.49" cy="354.16" fill="url(&quot;#SvgjsRadialGradient1003&quot;)"></circle><circle r="25" cx="811.43" cy="501.28" fill="url(&quot;#SvgjsRadialGradient1003&quot;)"></circle><circle r="25" cx="851.21" cy="660.34" fill="url(&quot;#SvgjsRadialGradient1003&quot;)"></circle><circle r="25" cx="1116.45" cy="367.61" fill="url(&quot;#SvgjsRadialGradient1003&quot;)"></circle><circle r="25" cx="1124.98" cy="525.46" fill="url(&quot;#SvgjsRadialGradient1003&quot;)"></circle><circle r="25" cx="1312.35" cy="652.36" fill="url(&quot;#SvgjsRadialGradient1003&quot;)"></circle><circle r="25" cx="1453.45" cy="-107.22" fill="url(&quot;#SvgjsRadialGradient1003&quot;)"></circle><circle r="25" cx="1459.91" cy="398.64" fill="url(&quot;#SvgjsRadialGradient1003&quot;)"></circle><circle r="25" cx="1602.64" cy="558.21" fill="url(&quot;#SvgjsRadialGradient1003&quot;)"></circle><circle r="5" cx="-101.82" cy="522.68" fill="#8b9ad9"></circle><circle r="5" cx="56.73" cy="533.37" fill="#8b9ad9"></circle><circle r="5" cx="71.36" cy="689.95" fill="#8b9ad9"></circle><circle r="5" cx="222.68" cy="533.83" fill="#8b9ad9"></circle><circle r="5" cx="215.91" cy="645.42" fill="#8b9ad9"></circle><circle r="5" cx="373.71" cy="532.38" fill="#8b9ad9"></circle><circle r="5" cx="545.79" cy="523.48" fill="#8b9ad9"></circle><circle r="5" cx="546.25" cy="674.99" fill="#8b9ad9"></circle><circle r="5" cx="685.21" cy="521.33" fill="#8b9ad9"></circle><circle r="5" cx="696.54" cy="647.93" fill="#8b9ad9"></circle><circle r="5" cx="978.48" cy="395.27" fill="#8b9ad9"></circle><circle r="5" cx="986.01" cy="490.87" fill="#8b9ad9"></circle><circle r="5" cx="975.57" cy="664.26" fill="#8b9ad9"></circle><circle r="5" cx="1108.76" cy="218.95" fill="#8b9ad9"></circle><circle r="5" cx="1140.45" cy="674.09" fill="#8b9ad9"></circle><circle r="5" cx="1281.68" cy="-50" fill="#8b9ad9"></circle><circle r="5" cx="1310.77" cy="44.09" fill="#8b9ad9"></circle><circle r="5" cx="1287.15" cy="231.64" fill="#8b9ad9"></circle><circle r="5" cx="1273.53" cy="382.64" fill="#8b9ad9"></circle><circle r="5" cx="1271.46" cy="498.45" fill="#8b9ad9"></circle><circle r="5" cx="1388.38" cy="66.54" fill="#8b9ad9"></circle><circle r="5" cx="1392.1" cy="246.68" fill="#8b9ad9"></circle><circle r="5" cx="1444.73" cy="561.15" fill="#8b9ad9"></circle><circle r="5" cx="1414.34" cy="644.05" fill="#8b9ad9"></circle><circle r="5" cx="1605.67" cy="-98.68" fill="#8b9ad9"></circle><circle r="5" cx="1549.37" cy="389.62" fill="#8b9ad9"></circle><circle r="5" cx="1609.76" cy="660.6" fill="#8b9ad9"></circle></g><defs><mask id="SvgjsMask1002"><rect width="1440" height="560" fill="#ffffff"></rect></mask><radialGradient id="SvgjsRadialGradient1003"><stop stop-color="#ffffff" offset="0.1"></stop><stop stop-color="#1735b3" offset="0.2"></stop><stop stop-color="rgba(23, 53, 179, 0)" offset="1"></stop></radialGradient></defs></svg>